<svg display="none" width="0" height="0" version="1.1" xmlns="http://www.w3.org/2000/svg" xmlns:xlink="http://www.w3.org/1999/xlink">

  <!-- Facebook -->
  <symbol id="facebook" viewBox="0 0 100 100">
    <title>Facebook Icon</title>
    <path d="M76.2638281,0.720046083 L76.2638281,16.5610599 L66.6598438,16.5610599 C63.1526562,16.5610599 60.7873438,17.281106 59.5639063,18.7211982 C58.3404687,20.1612903 57.72875,22.3214286 57.72875,25.2016129 L57.72875,36.5423387 L75.6521094,36.5423387 L73.2664063,54.3034754 L57.72875,54.3034754 L57.72875,99.8463902 L39.0101563,99.8463902 L39.0101563,54.3034754 L23.4113281,54.3034754 L23.4113281,36.5423387 L39.0101563,36.5423387 L39.0101563,23.4615015 C39.0101563,16.0210253 41.1307812,10.250656 45.3720312,6.15039363 C49.6132812,2.05013121 55.2614844,0 62.3166406,0 C68.3114844,0 72.9605469,0.240015361 76.2638281,0.720046083 L76.2638281,0.720046083 Z"></path>
  </symbol>

  <!-- Twitter -->
  <symbol id="twitter" viewBox="0 0 100 100">
    <title>Twitter Icon</title>
    <path d="M100,18.7375 C97.1658206,22.9229167 93.7394247,26.4890625 89.7208122,29.4359375 C89.7631134,30.0338542 89.784264,30.9307292 89.784264,32.1265625 C89.784264,37.6786458 88.9805415,43.2200521 87.3730964,48.7507812 C85.7656514,54.2815104 83.322758,59.5880208 80.0444162,64.6703125 C76.7660745,69.7526042 72.8637902,74.2476562 68.3375635,78.1554687 C63.8113367,82.0632813 58.3544839,85.1809896 51.9670051,87.5085938 C45.5795262,89.8361979 38.7478849,91 31.4720812,91 C20.0084602,91 9.5177665,87.9036458 0,81.7109375 C1.48054146,81.8817708 3.13028765,81.9671875 4.94923858,81.9671875 C14.4670051,81.9671875 22.9483926,79.0203125 30.393401,73.1265625 C25.9517766,73.0411458 21.9754653,71.6638021 18.464467,68.9945312 C14.9534687,66.3252604 12.5423012,62.9192708 11.2309645,58.7765625 C12.6269036,58.9901042 13.9170897,59.096875 15.1015228,59.096875 C16.9204738,59.096875 18.7182741,58.8619792 20.4949239,58.3921875 C15.7571912,57.4098958 11.8337563,55.0289062 8.72461929,51.2492188 C5.61548223,47.4695312 4.06091371,43.08125 4.06091371,38.084375 L4.06091371,37.828125 C6.93739425,39.4510417 10.0253807,40.3265625 13.3248731,40.4546875 C10.5329949,38.5755208 8.31218274,36.1197917 6.66243655,33.0875 C5.01269036,30.0552083 4.18781726,26.7666667 4.18781726,23.221875 C4.18781726,19.4635417 5.11844332,15.9828125 6.97969543,12.7796875 C12.0981387,19.1432292 18.3269882,24.2361979 25.6662437,28.0585938 C33.0054992,31.8809896 40.8629442,34.0057292 49.2385787,34.4328125 C48.9001692,32.8098958 48.7309645,31.2296875 48.7309645,29.6921875 C48.7309645,23.9692708 50.7296954,19.0898438 54.7271574,15.0539063 C58.7246193,11.0179687 63.5575296,9 69.2258883,9 C75.1480541,9 80.1395939,11.178125 84.2005076,15.534375 C88.8113367,14.6375 93.1472081,12.971875 97.2081218,10.5375 C95.642978,15.4489583 92.6395939,19.25 88.1979695,21.940625 C92.1319797,21.5135417 96.0659898,20.4458333 100,18.7375 L100,18.7375 Z"></path>
  </symbol>

  <!-- LinkedIn -->
  <symbol id="linkedin" viewBox="0 0 100 100">
    <title>LinkedIn Icon</title>
    <path d="M22.7213542,33.1934605 L22.7213542,98 L1.23697917,98 L1.23697917,33.1934605 L22.7213542,33.1934605 L22.7213542,33.1934605 Z M24.0885417,13.1825613 C24.1319444,16.3651226 23.0360243,19.0245232 20.8007812,21.1607629 C18.5655382,23.2970027 15.625,24.3651226 11.9791667,24.3651226 L11.8489583,24.3651226 C8.28993056,24.3651226 5.42534722,23.2970027 3.25520833,21.1607629 C1.08506944,19.0245232 0,16.3651226 0,13.1825613 C0,9.95640327 1.11762153,7.28610354 3.35286458,5.17166213 C5.58810764,3.05722071 8.50694444,2 12.109375,2 C15.7118056,2 18.5980903,3.05722071 20.7682292,5.17166213 C22.9383681,7.28610354 24.0451389,9.95640327 24.0885417,13.1825613 L24.0885417,13.1825613 Z M100,60.8555858 L100,98 L78.5807292,98 L78.5807292,63.3405995 C78.5807292,58.7629428 77.7018229,55.1771117 75.9440104,52.5831063 C74.1861979,49.9891008 71.4409722,48.6920981 67.7083333,48.6920981 C64.9739583,48.6920981 62.6844618,49.4441417 60.8398438,50.9482289 C58.9952257,52.4523161 57.6171875,54.3160763 56.7057292,56.5395095 C56.2282986,57.8474114 55.9895833,59.613079 55.9895833,61.8365123 L55.9895833,98 L34.5703125,98 C34.6571181,80.6049046 34.7005208,66.5013624 34.7005208,55.6893733 C34.7005208,44.8773842 34.6788194,38.4250681 34.6354167,36.3324251 L34.5703125,33.1934605 L55.9895833,33.1934605 L55.9895833,42.6103542 L55.859375,42.6103542 C56.7274306,41.2152589 57.6171875,39.9945504 58.5286458,38.9482289 C59.4401042,37.9019074 60.6662326,36.7683924 62.2070312,35.5476839 C63.7478299,34.3269755 65.6358507,33.3787466 67.8710938,32.7029973 C70.1063368,32.027248 72.5911458,31.6893733 75.3255208,31.6893733 C82.7473958,31.6893733 88.7152778,34.1634877 93.2291667,39.1117166 C97.7430556,44.0599455 100,51.3079019 100,60.8555858 L100,60.8555858 Z"></path>
  </symbol>

  <!-- Instagram -->
  <symbol id="instagram" viewBox="0 0 100 100">
    <title>Instagram Icon</title>
    <path d="M88.671875,84.5052083 L88.671875,42.3177083 L79.8828125,42.3177083 C80.7508681,45.0520833 81.1848958,47.8949653 81.1848958,50.8463542 C81.1848958,56.3151042 79.7960069,61.3606771 77.0182292,65.9830729 C74.2404514,70.6054688 70.4644097,74.2621528 65.6901042,76.953125 C60.9157986,79.6440972 55.7074653,80.9895833 50.0651042,80.9895833 C41.5147569,80.9895833 34.2013889,78.0490451 28.125,72.1679687 C22.0486111,66.2868924 19.0104167,59.1796875 19.0104167,50.8463542 C19.0104167,47.8949653 19.4444444,45.0520833 20.3125,42.3177083 L11.1328125,42.3177083 L11.1328125,84.5052083 C11.1328125,85.6336806 11.5125868,86.577691 12.2721354,87.3372396 C13.031684,88.0967882 13.9756944,88.4765625 15.1041667,88.4765625 L84.7005208,88.4765625 C85.7855903,88.4765625 86.71875,88.0967882 87.5,87.3372396 C88.28125,86.577691 88.671875,85.6336806 88.671875,84.5052083 L88.671875,84.5052083 Z M70.1822917,49.8046875 C70.1822917,44.4227431 68.218316,39.8328993 64.2903646,36.0351562 C60.3624132,32.2374132 55.6206597,30.3385417 50.0651042,30.3385417 C44.5529514,30.3385417 39.8328993,32.2374132 35.9049479,36.0351562 C31.9769965,39.8328993 30.0130208,44.4227431 30.0130208,49.8046875 C30.0130208,55.1866319 31.9769965,59.7764757 35.9049479,63.5742188 C39.8328993,67.3719618 44.5529514,69.2708333 50.0651042,69.2708333 C55.6206597,69.2708333 60.3624132,67.3719618 64.2903646,63.5742188 C68.218316,59.7764757 70.1822917,55.1866319 70.1822917,49.8046875 L70.1822917,49.8046875 Z M88.671875,26.3671875 L88.671875,15.625 C88.671875,14.4097222 88.2378472,13.3572049 87.3697917,12.4674479 C86.5017361,11.577691 85.4383681,11.1328125 84.1796875,11.1328125 L72.8515625,11.1328125 C71.5928819,11.1328125 70.5295139,11.577691 69.6614583,12.4674479 C68.7934028,13.3572049 68.359375,14.4097222 68.359375,15.625 L68.359375,26.3671875 C68.359375,27.6258681 68.7934028,28.6892361 69.6614583,29.5572917 C70.5295139,30.4253472 71.5928819,30.859375 72.8515625,30.859375 L84.1796875,30.859375 C85.4383681,30.859375 86.5017361,30.4253472 87.3697917,29.5572917 C88.2378472,28.6892361 88.671875,27.6258681 88.671875,26.3671875 L88.671875,26.3671875 Z M100,12.8255208 L100,87.1744792 C100,90.6901042 98.7413194,93.7065972 96.2239583,96.2239583 C93.7065972,98.7413194 90.6901042,100 87.1744792,100 L12.8255208,100 C9.30989583,100 6.29340278,98.7413194 3.77604167,96.2239583 C1.25868056,93.7065972 0,90.6901042 0,87.1744792 L0,12.8255208 C0,9.30989583 1.25868056,6.29340278 3.77604167,3.77604167 C6.29340278,1.25868056 9.30989583,0 12.8255208,0 L87.1744792,0 C90.6901042,0 93.7065972,1.25868056 96.2239583,3.77604167 C98.7413194,6.29340278 100,9.30989583 100,12.8255208 L100,12.8255208 Z"></path>
  </symbol>

  <!-- Github -->
  <symbol id="github" viewBox="0 0 100 100">
    <title>Github Icon</title>
    <path d="M38.4615385,64.9545455 C38.4615385,66.5643939 38.2111378,68.2144886 37.7103365,69.9048295 C37.2095353,71.5951705 36.3481571,73.1245265 35.1262019,74.4928977 C33.9042468,75.8612689 32.4519231,76.5454545 30.7692308,76.5454545 C29.0865385,76.5454545 27.6342147,75.8612689 26.4122596,74.4928977 C25.1903045,73.1245265 24.3289263,71.5951705 23.828125,69.9048295 C23.3273237,68.2144886 23.0769231,66.5643939 23.0769231,64.9545455 C23.0769231,63.344697 23.3273237,61.6946023 23.828125,60.0042614 C24.3289263,58.3139205 25.1903045,56.7845644 26.4122596,55.4161932 C27.6342147,54.047822 29.0865385,53.3636364 30.7692308,53.3636364 C32.4519231,53.3636364 33.9042468,54.047822 35.1262019,55.4161932 C36.3481571,56.7845644 37.2095353,58.3139205 37.7103365,60.0042614 C38.2111378,61.6946023 38.4615385,63.344697 38.4615385,64.9545455 L38.4615385,64.9545455 Z M76.9230769,64.9545455 C76.9230769,66.5643939 76.6726763,68.2144886 76.171875,69.9048295 C75.6710737,71.5951705 74.8096955,73.1245265 73.5877404,74.4928977 C72.3657853,75.8612689 70.9134615,76.5454545 69.2307692,76.5454545 C67.5480769,76.5454545 66.0957532,75.8612689 64.8737981,74.4928977 C63.6518429,73.1245265 62.7904647,71.5951705 62.2896635,69.9048295 C61.7888622,68.2144886 61.5384615,66.5643939 61.5384615,64.9545455 C61.5384615,63.344697 61.7888622,61.6946023 62.2896635,60.0042614 C62.7904647,58.3139205 63.6518429,56.7845644 64.8737981,55.4161932 C66.0957532,54.047822 67.5480769,53.3636364 69.2307692,53.3636364 C70.9134615,53.3636364 72.3657853,54.047822 73.5877404,55.4161932 C74.8096955,56.7845644 75.6710737,58.3139205 76.171875,60.0042614 C76.6726763,61.6946023 76.9230769,63.344697 76.9230769,64.9545455 L76.9230769,64.9545455 Z M86.5384615,64.9545455 C86.5384615,60.125 85.15625,56.0198864 82.3918269,52.6392045 C79.6274038,49.2585227 75.8814103,47.5681818 71.1538462,47.5681818 C69.5112179,47.5681818 65.6049679,47.990767 59.4350962,48.8359375 C56.5905449,49.2786458 53.4455128,49.5 50,49.5 C46.5544872,49.5 43.4094551,49.2786458 40.5649038,48.8359375 C34.4751603,47.990767 30.5689103,47.5681818 28.8461538,47.5681818 C24.1185897,47.5681818 20.3725962,49.2585227 17.6081731,52.6392045 C14.84375,56.0198864 13.4615385,60.125 13.4615385,64.9545455 C13.4615385,68.4962121 14.1025641,71.5851089 15.3846154,74.2212358 C16.6666667,76.8573627 18.2892628,78.9300426 20.2524038,80.4392756 C22.2155449,81.9485085 24.6594551,83.1558949 27.5841346,84.0614347 C30.5088141,84.9669744 33.3133013,85.5606061 35.9975962,85.8423295 C38.681891,86.124053 41.6666667,86.2649148 44.9519231,86.2649148 L55.0480769,86.2649148 C58.3333333,86.2649148 61.318109,86.124053 64.0024038,85.8423295 C66.6866987,85.5606061 69.4911859,84.9669744 72.4158654,84.0614347 C75.3405449,83.1558949 77.7844551,81.9485085 79.7475962,80.4392756 C81.7107372,78.9300426 83.3333333,76.8573627 84.6153846,74.2212358 C85.8974359,71.5851089 86.5384615,68.4962121 86.5384615,64.9545455 L86.5384615,64.9545455 Z M100,54.3295455 C100,62.6605114 98.7780449,69.3212595 96.3341346,74.3117898 C94.8116987,77.4107481 92.6983173,80.0871212 89.9939904,82.3409091 C87.2896635,84.594697 84.4651442,86.3252841 81.5204327,87.5326705 C78.5757212,88.7400568 75.1702724,89.6959044 71.3040865,90.4002131 C67.4379006,91.1045218 64.0024038,91.5472301 60.9975962,91.7283381 C57.9927885,91.909446 54.6474359,92 50.9615385,92 C47.8365385,92 44.9919872,91.9396307 42.4278846,91.818892 C39.8637821,91.6981534 36.9090545,91.4466146 33.5637019,91.0642756 C30.2183494,90.6819366 27.1634615,90.0782434 24.3990385,89.253196 C21.6346154,88.4281487 18.8902244,87.3918087 16.1658654,86.1441761 C13.4415064,84.8965436 11.0176282,83.266572 8.89423077,81.2542614 C6.77083333,79.2419508 5.04807692,76.9277936 3.72596154,74.3117898 C1.24198718,69.3615057 0,62.7007576 0,54.3295455 C0,44.7911932 2.72435897,36.8224432 8.17307692,30.4232955 C7.09134615,27.1231061 6.55048077,23.702178 6.55048077,20.1605114 C6.55048077,15.4919508 7.57211538,11.1051136 9.61538462,7 C13.9423077,7 17.7483974,7.79486269 21.0336538,9.38458807 C24.3189103,10.9743134 28.1049679,13.459517 32.3918269,16.8401989 C38.28125,15.4315814 44.4711538,14.7272727 50.9615385,14.7272727 C56.8910256,14.7272727 62.5,15.3712121 67.7884615,16.6590909 C71.9951923,13.3589015 75.7411859,10.9240057 79.0264423,9.35440341 C82.3116987,7.78480114 86.0977564,7 90.3846154,7 C92.4278846,11.1051136 93.4495192,15.4919508 93.4495192,20.1605114 C93.4495192,23.6619318 92.9086538,27.0426136 91.8269231,30.3025568 C97.275641,36.7419508 100,44.750947 100,54.3295455 L100,54.3295455 Z"></path>
  </symbol>


</svg>